<?xml version="1.0" encoding="utf-8"?>
<!-- Generator: Adobe Illustrator 16.0.0, SVG Export Plug-In . SVG Version: 6.00 Build 0)  -->
<!DOCTYPE svg PUBLIC "-//W3C//DTD SVG 1.1//EN" "http://www.w3.org/Graphics/SVG/1.1/DTD/svg11.dtd">
<svg version="1.1" id="Layer_1" xmlns="http://www.w3.org/2000/svg" xmlns:xlink="http://www.w3.org/1999/xlink" x="0px" y="0px"
     width="264.507px" height="217.462px" viewBox="0 0 264.507 217.462" enable-background="new 0 0 264.507 217.462"
     xml:space="preserve">
<g>
	<path fill-rule="evenodd" clip-rule="evenodd" fill="#5C3978" d="M96.362,26.458c-4.228-2.44-8.109-5.426-11.532-8.852
		c-3.434-3.434-6.433-7.312-8.866-11.539L59.869,15.35c3.255,5.644,7.252,10.811,11.815,15.382
		c4.588,4.575,9.737,8.554,15.376,11.814c10.943,6.327,23.629,9.944,37.161,9.944V33.917
		C114.071,33.917,104.55,31.207,96.362,26.458L96.362,26.458z"/>
    <path fill-rule="evenodd" clip-rule="evenodd" fill="#786490" d="M155.795,99.596v3.713c0,10.26-8.319,18.575-18.581,18.575
		v-18.575v-3.713V83.815V74.53v-9.29c15.862,0,30.727-4.242,43.527-11.643l9.29,16.084c-10.417,6.028-21.963,10.335-34.236,12.505
		V99.596L155.795,99.596z"/>
    <path fill-rule="evenodd" clip-rule="evenodd" fill="#786490" d="M124.221,99.596v3.713v18.575
		c-10.265,0-18.581-8.315-18.581-18.575v-3.713V82.187c-12.276-2.17-23.821-6.477-34.237-12.505l9.276-16.084
		c12.814,7.4,27.676,11.643,43.542,11.643v9.29v9.285V99.596L124.221,99.596z"/>
    <path fill-rule="evenodd" clip-rule="evenodd" fill="#5C3978" d="M165.083,26.458c4.215-2.44,8.111-5.426,11.532-8.852
		c3.422-3.434,6.42-7.312,8.855-11.539l16.093,9.282c-3.253,5.644-7.239,10.811-11.814,15.382
		c-4.573,4.575-9.737,8.554-15.377,11.814c-10.929,6.327-23.628,9.944-37.158,9.944V33.917
		C147.362,33.917,156.882,31.207,165.083,26.458z"/>
    <g>
		<path fill="#5C3978" d="M19.271,179.755c-1.663,1.412-2.494,3.529-2.494,6.351v2.494h16.704v7.54H16.777v14.79H7.38v-24.766
			c0-5.22,1.633-9.28,4.901-12.18c3.267-2.9,7.839-4.35,13.717-4.35c2.32,0,4.504,0.242,6.554,0.725
			c2.05,0.484,3.828,1.189,5.336,2.117l-2.899,7.424c-2.32-1.508-5.104-2.262-8.353-2.262S20.932,178.344,19.271,179.755z"/>
        <path fill="#5C3978" d="M73.152,197.88H49.545c0.425,1.934,1.43,3.461,3.016,4.582c1.586,1.122,3.558,1.682,5.916,1.682
			c1.624,0,3.064-0.241,4.321-0.725c1.256-0.483,2.426-1.247,3.509-2.291l4.814,5.22c-2.939,3.364-7.231,5.046-12.876,5.046
			c-3.52,0-6.632-0.686-9.338-2.059c-2.707-1.372-4.795-3.277-6.265-5.713s-2.203-5.2-2.203-8.294c0-3.054,0.725-5.809,2.175-8.265
			c1.45-2.455,3.44-4.369,5.974-5.742c2.532-1.372,5.365-2.059,8.497-2.059c3.054,0,5.819,0.658,8.294,1.972
			c2.475,1.315,4.417,3.2,5.829,5.655c1.411,2.456,2.117,5.307,2.117,8.555C73.326,195.56,73.267,196.372,73.152,197.88z
			 M51.982,187.846c-1.393,1.16-2.243,2.746-2.553,4.756h15.37c-0.31-1.972-1.16-3.547-2.552-4.727
			c-1.392-1.179-3.094-1.769-5.104-1.769C55.093,186.106,53.374,186.686,51.982,187.846z"/>
        <path fill="#5C3978" d="M111.025,179.726v31.204h-8.642v-3.596c-2.243,2.707-5.491,4.06-9.744,4.06
			c-2.939,0-5.597-0.657-7.975-1.972c-2.378-1.314-4.244-3.19-5.598-5.626c-1.354-2.436-2.029-5.258-2.029-8.468
			c0-3.209,0.676-6.032,2.029-8.468s3.22-4.311,5.598-5.626c2.378-1.314,5.035-1.972,7.975-1.972c3.982,0,7.095,1.257,9.338,3.77
			v-3.306H111.025z M99.889,201.621c1.508-1.566,2.262-3.663,2.262-6.293c0-2.629-0.754-4.727-2.262-6.293s-3.403-2.349-5.684-2.349
			c-2.32,0-4.234,0.783-5.742,2.349s-2.263,3.664-2.263,6.293c0,2.63,0.755,4.727,2.263,6.293s3.422,2.349,5.742,2.349
			C96.486,203.97,98.381,203.187,99.889,201.621z"/>
        <path fill="#5C3978" d="M132.398,180.422c1.836-0.773,3.953-1.16,6.351-1.16v8.352c-1.006-0.077-1.682-0.116-2.03-0.116
			c-2.591,0-4.62,0.725-6.09,2.175c-1.47,1.45-2.204,3.625-2.204,6.525v14.732h-9.048v-31.204h8.643v4.118
			C129.101,182.336,130.561,181.196,132.398,180.422z"/>
        <path fill="#5C3978" d="M147.101,208.581c-1.972-1.875-2.958-4.533-2.958-7.975v-32.712h9.048v32.19
			c0,1.315,0.339,2.33,1.016,3.045c0.676,0.716,1.633,1.073,2.871,1.073c0.464,0,0.937-0.058,1.421-0.174
			c0.482-0.116,0.859-0.251,1.131-0.406l0.406,7.018c-1.509,0.502-3.074,0.754-4.698,0.754
			C151.818,211.394,149.074,210.457,147.101,208.581z"/>
        <path fill="#5C3978" d="M194.893,197.88h-23.606c0.425,1.934,1.43,3.461,3.016,4.582c1.586,1.122,3.558,1.682,5.916,1.682
			c1.624,0,3.064-0.241,4.321-0.725c1.256-0.483,2.426-1.247,3.509-2.291l4.814,5.22c-2.939,3.364-7.231,5.046-12.876,5.046
			c-3.52,0-6.632-0.686-9.338-2.059c-2.707-1.372-4.795-3.277-6.265-5.713s-2.203-5.2-2.203-8.294c0-3.054,0.725-5.809,2.175-8.265
			c1.45-2.455,3.44-4.369,5.974-5.742c2.532-1.372,5.365-2.059,8.497-2.059c3.054,0,5.819,0.658,8.294,1.972
			c2.475,1.315,4.417,3.2,5.829,5.655c1.411,2.456,2.117,5.307,2.117,8.555C195.067,195.56,195.008,196.372,194.893,197.88z
			 M173.723,187.846c-1.393,1.16-2.243,2.746-2.553,4.756h15.37c-0.31-1.972-1.16-3.547-2.552-4.727
			c-1.392-1.179-3.094-1.769-5.104-1.769C176.834,186.106,175.115,186.686,173.723,187.846z"/>
        <path fill="#5C3978" d="M203.999,210.437c-2.476-0.638-4.447-1.44-5.916-2.407l3.016-6.496c1.393,0.89,3.074,1.615,5.046,2.175
			c1.973,0.561,3.905,0.841,5.801,0.841c3.827,0,5.741-0.947,5.741-2.842c0-0.889-0.521-1.527-1.565-1.914
			c-1.044-0.386-2.649-0.715-4.814-0.986c-2.552-0.386-4.66-0.831-6.322-1.334c-1.662-0.502-3.103-1.392-4.32-2.668
			s-1.827-3.093-1.827-5.452c0-1.972,0.57-3.721,1.711-5.249c1.14-1.527,2.803-2.716,4.988-3.567
			c2.184-0.85,4.765-1.276,7.743-1.276c2.203,0,4.397,0.242,6.583,0.725c2.184,0.484,3.991,1.151,5.423,2.001l-3.017,6.438
			c-2.746-1.546-5.742-2.32-8.989-2.32c-1.935,0-3.385,0.271-4.351,0.812c-0.967,0.542-1.45,1.238-1.45,2.088
			c0,0.967,0.522,1.644,1.566,2.03c1.044,0.387,2.706,0.754,4.988,1.102c2.552,0.426,4.64,0.88,6.264,1.363
			c1.624,0.484,3.035,1.363,4.234,2.639c1.197,1.276,1.798,3.055,1.798,5.336c0,1.934-0.58,3.654-1.74,5.162
			s-2.852,2.678-5.075,3.509s-4.862,1.247-7.917,1.247C209.005,211.394,206.472,211.075,203.999,210.437z"/>
        <path fill="#5C3978" d="M234.796,210.437c-2.476-0.638-4.447-1.44-5.916-2.407l3.016-6.496c1.393,0.89,3.074,1.615,5.046,2.175
			c1.973,0.561,3.905,0.841,5.801,0.841c3.827,0,5.741-0.947,5.741-2.842c0-0.889-0.521-1.527-1.565-1.914
			c-1.044-0.386-2.649-0.715-4.814-0.986c-2.552-0.386-4.66-0.831-6.322-1.334c-1.662-0.502-3.103-1.392-4.32-2.668
			s-1.827-3.093-1.827-5.452c0-1.972,0.57-3.721,1.711-5.249c1.14-1.527,2.803-2.716,4.988-3.567
			c2.184-0.85,4.765-1.276,7.743-1.276c2.203,0,4.397,0.242,6.583,0.725c2.184,0.484,3.991,1.151,5.423,2.001l-3.017,6.438
			c-2.746-1.546-5.742-2.32-8.989-2.32c-1.935,0-3.385,0.271-4.351,0.812c-0.967,0.542-1.45,1.238-1.45,2.088
			c0,0.967,0.522,1.644,1.566,2.03c1.044,0.387,2.706,0.754,4.988,1.102c2.552,0.426,4.64,0.88,6.264,1.363
			c1.624,0.484,3.035,1.363,4.234,2.639c1.197,1.276,1.798,3.055,1.798,5.336c0,1.934-0.58,3.654-1.74,5.162
			s-2.852,2.678-5.075,3.509s-4.862,1.247-7.917,1.247C239.803,211.394,237.27,211.075,234.796,210.437z"/>
	</g>
</g>
</svg>
